<svg xmlns="http://www.w3.org/2000/svg" id="iot-cloud-signal" viewBox="0 0 64 64">
  <path d="M32 49c-.55 0-1-.45-1-1v-9c0-.55.45-1 1-1s1 .45 1 1v9c0 .55-.45 1-1 1ZM25 46c-.55 0-1-.45-1-1v-6c0-.55.45-1 1-1s1 .45 1 1v6c0 .55-.45 1-1 1ZM39 46c-.55 0-1-.45-1-1v-6c0-.55.45-1 1-1s1 .45 1 1v6c0 .55-.45 1-1 1ZM17 54H7c-.55 0-1-.45-1-1s.45-1 1-1h9v-13c0-.55.45-1 1-1s1 .45 1 1v14c0 .55-.45 1-1 1ZM57 54h-10c-.55 0-1-.45-1-1v-14c0-.55.45-1 1-1s1 .45 1 1v13h9c.55 0 1 .45 1 1s-.45 1-1 1Z" style="fill:#085a8c"></path>
  <path d="m49.6,16.3c-1.74-8.33-9.03-14.3-17.6-14.3s-15.86,5.97-17.6,14.3c-5.49,1.2-9.4,6.02-9.4,11.7,0,6.62,5.38,12,12,12h30c6.62,0,12-5.38,12-12,0-5.69-3.91-10.5-9.4-11.7Z" style="fill:#3df2e1"></path>
  <path d="m32,53.63c1.61,0,3.15-.76,4.12-2.03.33-.44.25-1.07-.19-1.4-.44-.34-1.07-.25-1.4.19-.6.79-1.52,1.24-2.53,1.24s-1.93-.45-2.53-1.24c-.33-.44-.96-.52-1.4-.19-.44.33-.52.96-.19,1.4.97,1.27,2.51,2.03,4.12,2.03Z" style="fill:#0fb2f3"></path>
  <path d="m32,57.82c2.94,0,5.65-1.33,7.45-3.64.34-.44.26-1.06-.18-1.4-.44-.34-1.06-.26-1.4.18-1.41,1.82-3.55,2.87-5.87,2.87s-4.45-1.04-5.87-2.87c-.34-.44-.97-.52-1.4-.18-.44.34-.52.97-.18,1.4,1.8,2.31,4.51,3.64,7.45,3.64Z" style="fill:#0fb2f3"></path>
  <path d="m41.21,55.5c-2.23,2.86-5.58,4.5-9.21,4.5s-6.98-1.64-9.21-4.5c-.34-.44-.97-.51-1.4-.17-.44.34-.51.97-.17,1.4,2.61,3.35,6.54,5.27,10.79,5.27s8.18-1.92,10.79-5.27c.34-.44.26-1.06-.17-1.4s-1.06-.26-1.4.17Z" style="fill:#0fb2f3"></path>
  <circle cx="5" cy="53" r="3" style="fill:#0fb2f3"></circle>
  <circle cx="59" cy="53" r="3" style="fill:#0fb2f3"></circle>
</svg>
