<svg xmlns="http://www.w3.org/2000/svg" xml:space="preserve" width="24" height="24" id="logo">
  <path d="M23 9.1V8.2h-.1l-.1-.1-.1-.1-10.5-7c-.2-.1-.4-.1-.5 0L1.2 8l-.1.1-.1.1s0 .1-.1.1v7.2s0 .1.1.1l.1.1.1.1 10.4 7c.2.1.4.1.5 0l10.5-7 .1-.1.1-.1s0-.1.1-.1v-.1l.1-6.3zM12.5 7.8V3.2c0-.2.1-.4.3-.4.2-.1.4-.1.5 0L21 8c.1.1.2.2.2.4v.2c0 .2-.1.3-.2.4l-3.5 2.3c-.1.1-.2.1-.3.1s-.2 0-.3-.1l-4.3-2.9c-.1-.1-.2-.2-.2-.4v-.2zm-9.7.6c0-.2.1-.3.2-.4l7.7-5.2c.2-.1.4-.1.5 0 .2.1.3.3.3.4V8c0 .2-.1.3-.2.4L7 11.2c-.1.1-.2.1-.3.1s-.2 0-.3-.1L3 8.9c-.1-.1-.2-.2-.2-.4v-.1zm-.3 5.8c-.1 0-.2 0-.2-.1-.2-.1-.3-.3-.3-.4v-3.3c0-.2.1-.4.3-.4.2-.1.4-.1.5 0l2.5 1.7c.1.1.2.2.2.4s-.1.3-.2.4l-2.5 1.7c-.1-.1-.2 0-.3 0zm9 6.5c0 .2-.1.4-.3.4-.1 0-.2.1-.2.1-.1 0-.2 0-.3-.1L3 15.9c-.1-.1-.2-.2-.2-.4s.1-.3.2-.4l3.5-2.3c.2-.1.4-.1.6 0l4.3 2.9c.1.1.2.2.2.4v4.6zm.5-5.9c-.1 0-.2 0-.3-.1l-3.5-2.3c-.1-.1-.2-.2-.2-.4v-.2c0-.2.1-.3.2-.4l3.5-2.3c.2-.1.4-.1.6 0l3.5 2.3c.1.1.2.2.2.4v.2c0 .2-.1.3-.2.4l-3.5 2.3c-.1.1-.2.1-.3.1zm9 1.1-7.7 5.2c-.1.1-.2.1-.3.1-.1 0-.2 0-.2-.1-.2-.1-.3-.3-.3-.4v-4.6c0-.2.1-.3.2-.4l4.3-2.9c.2-.1.4-.1.6 0l3.5 2.3c.1.1.2.2.2.4-.1.2-.2.3-.3.4zm1-2.2c0 .2-.1.4-.3.4-.1 0-.2.1-.2.1-.1 0-.2 0-.3-.1l-2.5-1.7c-.1-.1-.2-.2-.2-.4s.1-.3.2-.4l2.5-1.7c.2-.1.4-.1.5 0 .2.1.3.3.3.4v3.4z"></path>
</svg>
