<?xml version="1.0" encoding="UTF-8"?>
<svg id="Layer_2" data-name="Layer 2" xmlns="http://www.w3.org/2000/svg" viewBox="0 0 1626.93 1383.68">
  <defs>
    <style>
      .cls-1 {
        fill: #ef005c;
        strokeWidth: 0px;
      }
    </style>
  </defs>
  <g id="Layer_1-2" data-name="Layer 1">
    <g>
      <path class="cls-1" d="m370.29,905.85l262.31,182.66c111.15,77.4,250.58,77.39,361.73,0l632.6-440.52v-105.33c0-47.93-21.8-92.38-57.51-117.24l-486.89-339.05c-165.35-115.15-372.79-115.15-538.14,0L57.51,425.41C21.8,450.27,0,494.73,0,542.66v105.33L609.25,223.72c125.5-87.39,282.93-87.39,408.43,0l478.19,333-189.57,132.01v-109.75c0-41.36-18.81-79.71-49.62-101.16l-262.35-182.66c-111.14-77.39-250.57-77.38-361.71.01L0,735.7v105.33c0,47.93,21.8,92.38,57.51,117.24l486.89,339.05c165.35,115.15,372.79,115.15,538.14,0l486.89-339.05c35.7-24.86,57.51-69.31,57.51-117.24v-105.33l-609.25,424.26c-125.5,87.39-282.93,87.39-408.43,0l-478.19-333,189.61-132.04v109.77c0,41.36,18.81,79.71,49.62,101.16Zm315.97-465.55c78.17-54.44,176.23-54.44,254.41,0l361.2,251.52-361.21,251.53c-78.17,54.43-176.23,54.43-254.4,0l-361.18-251.51,361.18-251.54Z"/>
      <circle class="cls-1" cx="813.46" cy="691.84" r="212.52" transform="translate(-250.95 777.84) rotate(-45)"/>
    </g>
  </g>
</svg>